<svg xmlns="http://www.w3.org/2000/svg" viewBox="0 0 953.7 513.3"><g id="Capa_2" data-name="Capa 2"><g id="Layer_1" data-name="Layer 1"><path d="M873.73,135.24H302.51V0H873.73ZM740,28.35H595.07V63.14H583.63V28.41h-153V63.16H419.22V28.38H331v78.23H845.16V28.37H751.48V63.14H740Z"/><path d="M224.8,264.2c-1.4-59.14,51.1-110.06,111.38-110.29s111,51.25,111.52,109.92c.52,61.26-51.25,111.29-112.24,111.4-50.64.09-111.52-40.15-110.66-111m110.49,80.67c16,0,30.5-3.66,43.48-12.34,30.42-20.34,41.39-53.37,34.08-87.77-6.18-29-33.21-57.74-69.45-60.07-33.38-2.15-58.78,11.16-76,39.61-9.93,16.41-11.51,34.57-9.21,53.31,4.65,37.79,40.6,68.24,77.1,67.26"/><path d="M815.85,371.1h-2.42c-10.17,0-20.33,0-30.5,0A3,3,0,0,1,779.7,369c-6.69-15.7-13.52-31.35-20.2-47a3.73,3.73,0,0,0-4.07-2.64q-42.85.11-85.7,0a3.36,3.36,0,0,0-3.62,2.27c-7.16,15.82-14.46,31.6-21.64,47.42a3,3,0,0,1-3.26,2.1c-10-.08-20,0-30,0-.67,0-1.34-.07-2.32-.11L714.2,144.75,815.85,371.1M713.64,216.82c-11.11,24.33-22,48.2-33,72.31h64.57c-10.51-24.1-20.94-48-31.53-72.31"/><path d="M547.68,305.62c5.13-12.71,10.09-25,15-37.22C577.34,232.28,594,192.16,608.58,156c.46-1.13.83-1.95,2.38-1.94,10.77.08,21.55,0,32.32.06a11.62,11.62,0,0,1,1.23.14C612.7,230.49,578.94,310.55,547,387.17c-31.23-76.57-64.23-156.59-95.34-232.88.93-.06,1.66-.14,2.38-.14,10.16,0,20.32,0,30.49-.06a2.85,2.85,0,0,1,3.16,2.15c18.92,47.57,39.9,99.11,58.87,146.66.31.77.66,1.54,1.17,2.72"/><path d="M32.06,222.1V370.94H0V143.8L155.06,306V158.29h32.17V384L32.06,222.1"/><path d="M28.17,407H60.83a55.52,55.52,0,0,1,16.77,2.33,29.3,29.3,0,0,1,12.13,7.11q7.2,7.2,7.2,18.73a32.51,32.51,0,0,1-14.08,27.72,49.32,49.32,0,0,1-16.34,7.27,85.76,85.76,0,0,1-21.42,2.46H18.42L7.79,511.88H0Zm17.07,58.58q21.27,0,32.51-7.81T89,435.39q0-8.56-5.39-14-7.35-7.35-23.08-7.37H33.85L20.07,465.58Z"/><path d="M126.72,406.94h37.44q16.26,0,25.43,6.86t9.18,19.39a28.79,28.79,0,0,1-2.46,12,33.08,33.08,0,0,1-6.79,9.77,37.16,37.16,0,0,1-13.21,8.29,70.56,70.56,0,0,1-17.52,4.1l23,44h-9l-22.37-43.25H118.07l-11.63,43.25H98.68ZM151,461.09q11.64,0,19.84-2.92a34.12,34.12,0,0,0,13-7.7,23.11,23.11,0,0,0,7-16.91,17.26,17.26,0,0,0-6.72-14.29Q177.43,414,163.71,414H132.38l-12.67,47.14Z"/><path d="M240.76,509.8A43,43,0,0,1,217.19,486a46.28,46.28,0,0,1-3.36-17.61,61.58,61.58,0,0,1,4.7-23.64,66.5,66.5,0,0,1,12.91-20.22,64.13,64.13,0,0,1,19.09-14.09,52.83,52.83,0,0,1,23.42-5.3,46.31,46.31,0,0,1,18.12,3.5,44.11,44.11,0,0,1,14.25,9.55,43.63,43.63,0,0,1,9.32,14.25,46,46,0,0,1,3.36,17.6,61.3,61.3,0,0,1-4.71,23.64,66.44,66.44,0,0,1-12.89,20.22A64.13,64.13,0,0,1,282.3,508a52.67,52.67,0,0,1-23.42,5.3,46.09,46.09,0,0,1-18.12-3.5m38.67-8.28A55.35,55.35,0,0,0,296,488.91a59.81,59.81,0,0,0,11.07-18,56,56,0,0,0,4-20.89,40.42,40.42,0,0,0-2.7-14.92,37,37,0,0,0-7.55-12,34.48,34.48,0,0,0-11.68-8A38.24,38.24,0,0,0,274,412.17a45.26,45.26,0,0,0-20.58,4.77,55.26,55.26,0,0,0-16.53,12.61,59.71,59.71,0,0,0-11.08,18,56,56,0,0,0-4,20.88,40.58,40.58,0,0,0,2.69,14.92,37.1,37.1,0,0,0,7.56,12,34.27,34.27,0,0,0,11.68,8.05,38.24,38.24,0,0,0,15.19,2.91,45.19,45.19,0,0,0,20.57-4.77"/><path d="M359.28,406.94h32.51a55.13,55.13,0,0,1,16.71,2.32,29.25,29.25,0,0,1,12.08,7.08q7.17,7.17,7.17,18.64a32.42,32.42,0,0,1-14,27.61,48.93,48.93,0,0,1-16.26,7.23,85.62,85.62,0,0,1-21.33,2.45H349.58L339,511.37h-7.76Zm17,58.33q21.17,0,32.37-7.78t11.18-22.3q0-8.52-5.37-13.9-7.29-7.34-23-7.33H365l-13.73,51.31Z"/><polygon points="458.02 406.94 531.57 406.94 529.62 413.95 463.84 413.95 452.8 455.27 511.88 455.27 509.94 462.29 450.86 462.29 439.67 504.35 506.2 504.35 504.27 511.36 429.98 511.36 458.02 406.94"/><path d="M555,406.94h37.44q16.26,0,25.44,6.86T627,433.19a28.79,28.79,0,0,1-2.46,12,32.9,32.9,0,0,1-6.79,9.77,37.16,37.16,0,0,1-13.21,8.29,70.56,70.56,0,0,1-17.52,4.1l23,44h-9L578.7,468.11H546.33L534.7,511.36h-7.76Zm24.31,54.15q11.64,0,19.84-2.92a34,34,0,0,0,13-7.7,23.11,23.11,0,0,0,7-16.91,17.26,17.26,0,0,0-6.72-14.29Q605.71,414,592,414H560.64L548,461.09Z"/><polygon points="685.06 413.95 648.66 413.95 650.6 406.95 731.15 406.95 729.21 413.95 692.81 413.95 666.71 511.36 658.95 511.36 685.06 413.95"/><polygon points="753.97 406.94 761.73 406.94 733.68 511.36 725.93 511.36 753.97 406.94"/><polygon points="793.8 406.94 867.33 406.94 865.39 413.95 799.61 413.95 788.58 455.27 847.64 455.27 845.71 462.29 786.63 462.29 775.45 504.35 841.98 504.35 840.04 511.36 765.75 511.36 793.8 406.94"/><path d="M877.1,507.48a46.8,46.8,0,0,1-16.93-14.61l6-4.33a45.33,45.33,0,0,0,15.29,13q8.58,4.32,21.11,4.32a40.26,40.26,0,0,0,11.94-1.71,30.39,30.39,0,0,0,9.54-4.78,23,23,0,0,0,6.33-7.23,18.42,18.42,0,0,0,2.32-9.1,14.37,14.37,0,0,0-5.07-11.41,33.39,33.39,0,0,0-7.09-4.77A116.55,116.55,0,0,0,909.85,462a149.36,149.36,0,0,1-13.72-6.05,43.69,43.69,0,0,1-9.26-6.11,20,20,0,0,1-5.21-7,21.32,21.32,0,0,1-1.65-8.58,24.18,24.18,0,0,1,2.69-11.19,27.75,27.75,0,0,1,7.6-9.1,39.23,39.23,0,0,1,11.79-6.19,52.27,52.27,0,0,1,36.54,2.17,42.31,42.31,0,0,1,15.07,11.49l-6,4.77A37.78,37.78,0,0,0,934.3,416a42.36,42.36,0,0,0-17.59-3.5,38.15,38.15,0,0,0-12.08,1.79,29.36,29.36,0,0,0-9,4.7,21.36,21.36,0,0,0-5.66,6.71,16.77,16.77,0,0,0-2,8,14.13,14.13,0,0,0,1.48,6.5,17.26,17.26,0,0,0,4.56,5.37,41.4,41.4,0,0,0,7.76,4.77A116.18,116.18,0,0,0,912.83,455a95.48,95.48,0,0,1,12.53,5.53,38.75,38.75,0,0,1,8.58,6.11,21,21,0,0,1,6.64,15.81,25.33,25.33,0,0,1-2.91,11.94,30.42,30.42,0,0,1-8.06,9.62,39.67,39.67,0,0,1-12.31,6.49,48.76,48.76,0,0,1-15.51,2.38q-14.31,0-24.69-5.37"/><path d="M842.44,154.06h31.29l0,5c0,1.32,0,2,0,4.1V341.86h78.5v29.43H842.44"/></g></g></svg>