<?xml version="1.0" encoding="UTF-8"?>
<svg id="Capa_1" data-name="Capa 1" xmlns="http://www.w3.org/2000/svg" viewBox="0 0 310 310">
  <defs>
    <style>
      .cls-1 {
        fill: #fff;
        stroke: #fff;
        stroke-miterlimit: 10;
        stroke-width: 4px;
      }

      .cls-2 {
        stroke-width: 0px;
      }
    </style>
  </defs>
  <circle class="cls-2" cx="155" cy="155" r="155"/>
  <g id="J1bgqB">
    <g>
      <path class="cls-1" d="M219.5,108.13c-.33,1.16-.45,2.44-1.02,3.47-.99,1.79-2.02,3.67-3.45,5.11-18.18,18.29-36.43,36.52-54.7,54.73-.66.65-1.58,1.18-2.47,1.44-8.36,2.38-16.73,4.7-25.11,7.01-3.2.88-5.17-1.06-4.3-4.25,2.31-8.38,4.62-16.76,6.99-25.12.25-.89.77-1.82,1.43-2.48,18.24-18.3,36.49-36.57,54.78-54.82,5.93-5.92,14.43-5.87,20.38,0,1.04,1.03,2.07,2.07,3.11,3.11,2.23,2.21,3.69,4.83,4.16,7.96.02.15.13.29.2.43v3.42ZM143.45,150.48c4.82,4.81,9.64,9.64,14.29,14.29,15.04-15.04,30.15-30.15,45.16-45.17-4.71-4.71-9.53-9.53-14.29-14.29-15.02,15.02-30.11,30.12-45.16,45.16ZM207.55,114.96c1.3-1.19,2.78-2.3,3.97-3.66,2.33-2.67,2.37-6.85.07-9.53-1.55-1.81-3.3-3.48-5.08-5.07-1.45-1.3-3.27-1.68-5.22-1.58-3.86.21-5.78,3.2-8.14,5.44,4.92,4.92,9.74,9.75,14.4,14.4ZM140.2,156.56c-1.46,5.28-2.92,10.54-4.43,16.02,5.47-1.52,10.74-2.98,16-4.44-3.89-3.89-7.67-7.68-11.57-11.58Z"/>
      <path class="cls-1" d="M94.5,114.72c.67-1.95,1.06-4.05,2.06-5.81,2.97-5.23,7.61-7.9,13.63-7.94,9.03-.06,18.06-.03,27.1-.01,2.1,0,3.52,1.27,3.53,3.07.02,1.82-1.47,3.12-3.61,3.13-8.87,0-17.74,0-26.61,0-4.83,0-8.35,2.62-9.55,7.13-.25.93-.31,1.93-.31,2.9-.02,26.57-.02,53.14,0,79.71,0,4.98,2.49,8.46,6.93,9.69,1,.28,2.08.39,3.13.39,28.64.02,57.28.02,85.92.01,6.09,0,10.05-3.99,10.05-10.12.01-8.83,0-17.66,0-26.49,0-1.78.93-3.08,2.37-3.4,1.9-.43,3.73.94,3.78,2.94.06,2.48.03,4.96.03,7.45,0,7.04.09,14.08-.07,21.12-.17,7.78-6.78,14.33-14.57,14.66-.57.02-1.14.05-1.71.05-28.6,0-57.2-.01-85.8.01-6.27,0-11.13-2.51-14.25-7.95-1-1.75-1.39-3.86-2.07-5.8,0-28.24,0-56.48,0-84.72Z"/>
    </g>
  </g>
</svg>