<?xml version="1.0" encoding="UTF-8"?>
<svg id="Capa_1" data-name="Capa 1" xmlns="http://www.w3.org/2000/svg" viewBox="0 0 310 310">
  <defs>
    <style>
      .cls-1 {
        fill: none;
        stroke: #fff;
        stroke-miterlimit: 10;
        stroke-width: 8px;
      }

      .cls-2 {
        fill: #377f22;
      }

      .cls-2, .cls-3 {
        stroke-width: 0px;
      }

      .cls-3 {
        fill: #fff;
      }
    </style>
  </defs>
  <circle class="cls-2" cx="155" cy="155" r="123.5"/>
  <g>
    <path class="cls-1" d="M96.57,148.02c.84-17.05,7.89-31.13,21.04-42.03,8.82-7.31,19.05-11.52,30.44-12.58,16.12-1.49,30.52,2.97,42.96,13.33,10.09,8.4,16.48,19.13,19.26,31.96.51,2.37.69,4.81,1.03,7.21.05.37.14.73.21,1.09v6.29c-.34,2.59-.6,5.19-1.05,7.75-1.2,6.91-3.64,13.38-7.29,19.37-.52.86-.55,1.55-.18,2.46,2.87,7.04,5.68,14.11,8.51,21.17v1.57c-.82.82-1.65,1.65-2.47,2.47h-1.57c-7.27-2.91-14.53-5.84-21.81-8.71-.41-.16-1.09,0-1.5.24-5.74,3.48-11.9,5.89-18.48,7.2-2.63.52-5.32.74-7.98,1.11-.33.04-.66.11-.99.16h-6.29c-2.18-.3-4.38-.5-6.53-.9-17.29-3.28-30.41-12.6-39.42-27.63-5.8-9.68-8.44-20.28-7.88-31.54Z"/>
    <path class="cls-3" d="M170.91,180.36c-2.57-.59-5.19-1.03-7.71-1.79-7.55-2.27-14.56-5.61-20.62-10.78-5.46-4.66-10.06-10.05-14.16-15.92-2.76-3.96-5.11-8.12-5.88-12.94-1.04-6.52.62-12.24,5.84-16.52,2.35-1.92,5.29-1.77,8.1-1.09.56.14,1.15.83,1.4,1.41,1.78,4.05,3.41,8.17,5.25,12.2.87,1.91.51,3.43-.76,4.89-1.08,1.24-2.19,2.45-3.24,3.71-.98,1.17-1.04,1.9-.29,3.15,4.95,8.22,11.58,14.53,20.56,18.19,2.46,1,3.6.72,5.26-1.4,1.03-1.32,2.02-2.67,3.01-4.03,1.45-1.98,2.64-2.37,4.85-1.34,3.95,1.84,7.86,3.77,11.79,5.64,1.05.5,1.46,1.26,1.42,2.42-.25,6.99-2.83,10.56-10.34,13.21-.82.29-1.69.44-2.55.58-.62.1-1.25.08-1.88.12-.02.09-.05.18-.07.27Z"/>
  </g>
</svg>