<?xml version="1.0" encoding="UTF-8"?>
<svg id="Capa_1" data-name="Capa 1" xmlns="http://www.w3.org/2000/svg" viewBox="0 0 310 310">
  <defs>
    <style>
      .cls-1 {
        fill: #517ee3;
      }

      .cls-1, .cls-2 {
        stroke-width: 0px;
      }

      .cls-2 {
        fill: #fff;
      }
    </style>
  </defs>
  <circle class="cls-1" cx="155" cy="155" r="123.5"/>
  <g id="s1xpNU">
    <path class="cls-2" d="M88.5,118.37c.2-.7.36-1.42.59-2.11,1.57-4.77,6-7.99,11.14-8.01,8.14-.03,16.27-.01,24.41-.01,28.17,0,56.35,0,84.52,0,5.92,0,10.5,3.31,11.9,8.69.29,1.11.42,2.3.42,3.46.02,23.07.02,46.14.01,69.21,0,7.14-5.04,12.16-12.2,12.16-36.09,0-72.19,0-108.28,0-6.51,0-10.74-3.33-12.32-9.66-.04-.16-.13-.32-.19-.47,0-24.42,0-48.84,0-73.27ZM207.87,116.42c-.06-.09-.13-.19-.19-.28h-105.79c.57.47.89.7,1.17.97,16.08,16.12,32.15,32.25,48.23,48.37,2.5,2.51,4.92,2.52,7.42.01,11.55-11.59,23.1-23.18,34.67-34.76,4.8-4.8,9.66-9.55,14.5-14.33ZM102.03,193.86h105.95c-11.25-11.15-22.31-22.11-33.44-33.14-.25.24-.6.55-.92.89-3.24,3.25-6.47,6.51-9.72,9.75-5.1,5.07-12.68,5.07-17.78,0-1.96-1.95-3.91-3.93-5.87-5.89-1.61-1.62-3.23-3.23-4.76-4.76-11.14,11.04-22.2,22-33.46,33.15ZM96.37,121.94v66.11c11.05-10.95,22.19-21.98,33.36-33.05-11.17-11.07-22.31-22.11-33.36-33.06ZM213.61,188.12v-66c-10.98,10.87-22.12,21.9-33.32,32.98,11.13,11.03,22.25,22.06,33.32,33.03Z"/>
  </g>
</svg>